<svg width="1280" height="720" viewBox="0 0 1280 720" fill="none" xmlns="http://www.w3.org/2000/svg">
<rect width="1280" height="720" fill="#313139"/>
<rect x="19" y="35" width="1246" height="665" rx="29" fill="#0C0B10"/>
<path d="M57 299.556H66.3V312H57V299.556ZM78.7 291.778H88V312H78.7V291.778ZM67.85 284H77.15V312H67.85V284ZM60.1 302.667V308.889H63.2V302.667H60.1ZM70.95 287.111V308.889H74.05V287.111H70.95ZM81.8 294.889V308.889H84.9V294.889H81.8Z" fill="#D7D7D7"/>
<path d="M60.7293 239.411L66.0024 234.138L70.3858 238.522L75.2792 233.629L72.5 230.85H80.25V238.6L77.4709 235.821L70.3858 242.906L66.0024 238.522L62.1662 242.357C63.9075 244.978 66.58 246.839 69.6422 247.563C72.7044 248.286 75.9272 247.819 78.6576 246.255C81.3879 244.691 83.4216 242.148 84.3465 239.14C85.2715 236.132 85.0184 232.886 83.6387 230.058C82.259 227.23 79.8557 225.032 76.916 223.91C73.9763 222.788 70.72 222.826 67.8069 224.015C64.8938 225.205 62.5419 227.457 61.2277 230.316C59.9135 233.175 59.7353 236.427 60.7293 239.412V239.411ZM58.3454 241.826L58.3299 241.81L58.3361 241.804C57.4525 239.82 56.9972 237.672 57 235.5C57 226.939 63.9394 220 72.5 220C81.0607 220 88 226.939 88 235.5C88 244.061 81.0607 251 72.5 251C66.1915 251 60.7665 247.233 58.3454 241.826V241.826Z" fill="#D7D7D7"/>
<path d="M88 185.345C88 185.784 87.8186 186.205 87.4956 186.515C87.1726 186.826 86.7345 187 86.2778 187H58.7222C58.2655 187 57.8274 186.826 57.5044 186.515C57.1814 186.205 57 185.784 57 185.345V167.953C56.9998 167.7 57.0596 167.451 57.1748 167.225C57.29 166.998 57.4576 166.8 57.6648 166.645L71.4426 156.349C71.7449 156.123 72.117 156 72.5 156C72.883 156 73.2551 156.123 73.5574 156.349L87.3352 166.645C87.5424 166.8 87.71 166.998 87.8252 167.225C87.9404 167.451 88.0002 167.7 88 167.953V185.345ZM84.5556 183.69V168.76L72.5 159.751L60.4444 168.76V183.69H84.5556Z" fill="#D7D7D7"/>
<rect x="248.633" y="149.329" width="880.733" height="539.671" rx="20" fill="#141315"/>
<g filter="url(#filter0_d_618_52)">
<rect x="186.811" y="135.653" width="1005.39" height="525.995" rx="20" fill="#212024"/>
</g>
<g filter="url(#filter1_d_618_52)">
<rect x="126" y="50" width="1126" height="582.555" rx="20" fill="#232228"/>
</g>
<rect x="157" y="171" width="327" height="433" rx="10.3715" fill="#171721"/>
<path d="M238.084 179.793V193H235.372V179.793H238.084ZM242.148 179.793V181.925H231.372V179.793H242.148ZM248.089 182.052L244.497 193H241.603L246.511 179.793H248.352L248.089 182.052ZM251.073 193L247.472 182.052L247.182 179.793H249.041L253.976 193H251.073ZM250.91 188.084V190.215H243.935V188.084H250.91ZM257.441 179.793L259.926 184.401L262.411 179.793H265.523L261.686 186.342L265.622 193H262.484L259.926 188.301L257.368 193H254.212L258.157 186.342L254.311 179.793H257.441ZM272.362 182.052L268.77 193H265.876L270.783 179.793H272.625L272.362 182.052ZM275.346 193L271.745 182.052L271.455 179.793H273.314L278.249 193H275.346ZM275.183 188.084V190.215H268.207V188.084H275.183ZM288.154 193H285.278L285.296 190.877H288.154C288.867 190.877 289.469 190.717 289.959 190.397C290.448 190.07 290.817 189.596 291.065 188.973C291.319 188.35 291.446 187.597 291.446 186.714V186.07C291.446 185.393 291.374 184.797 291.228 184.283C291.089 183.769 290.881 183.337 290.603 182.986C290.324 182.635 289.983 182.372 289.578 182.197C289.173 182.016 288.707 181.925 288.181 181.925H285.224V179.793H288.181C289.064 179.793 289.871 179.944 290.603 180.247C291.34 180.543 291.978 180.969 292.517 181.526C293.055 182.082 293.469 182.747 293.759 183.521C294.055 184.289 294.204 185.145 294.204 186.088V186.714C294.204 187.651 294.055 188.507 293.759 189.281C293.469 190.055 293.055 190.72 292.517 191.277C291.984 191.827 291.346 192.253 290.603 192.556C289.865 192.852 289.049 193 288.154 193ZM286.82 179.793V193H284.099V179.793H286.82ZM305.043 190.877V193H298.013V190.877H305.043ZM298.902 179.793V193H296.181V179.793H298.902ZM304.127 185.172V187.24H298.013V185.172H304.127ZM305.034 179.793V181.925H298.013V179.793H305.034ZM316.626 182.052L313.034 193H310.141L315.048 179.793H316.889L316.626 182.052ZM319.61 193L316.009 182.052L315.719 179.793H317.578L322.513 193H319.61ZM319.447 188.084V190.215H312.472V188.084H319.447ZM328.88 188.292H325.515V186.17H328.88C329.4 186.17 329.824 186.085 330.15 185.916C330.477 185.741 330.716 185.499 330.867 185.19C331.018 184.882 331.094 184.534 331.094 184.147C331.094 183.754 331.018 183.388 330.867 183.05C330.716 182.711 330.477 182.439 330.15 182.233C329.824 182.028 329.4 181.925 328.88 181.925H326.459V193H323.737V179.793H328.88C329.914 179.793 330.8 179.981 331.538 180.356C332.282 180.725 332.85 181.235 333.243 181.889C333.636 182.542 333.833 183.288 333.833 184.129C333.833 184.982 333.636 185.719 333.243 186.342C332.85 186.965 332.282 187.446 331.538 187.784C330.8 188.123 329.914 188.292 328.88 188.292ZM335.711 179.793H340.636C341.646 179.793 342.513 179.944 343.239 180.247C343.971 180.549 344.533 180.997 344.926 181.589C345.319 182.182 345.516 182.911 345.516 183.775C345.516 184.483 345.395 185.09 345.153 185.598C344.917 186.1 344.582 186.521 344.146 186.859C343.717 187.192 343.212 187.458 342.631 187.657L341.77 188.111H337.488L337.47 185.988H340.654C341.132 185.988 341.528 185.904 341.842 185.734C342.157 185.565 342.392 185.329 342.55 185.027C342.713 184.725 342.795 184.374 342.795 183.975C342.795 183.552 342.716 183.186 342.559 182.877C342.402 182.569 342.163 182.333 341.842 182.17C341.522 182.006 341.12 181.925 340.636 181.925H338.432V193H335.711V179.793ZM343.094 193L340.083 187.113L342.958 187.095L346.006 192.873V193H343.094ZM358.459 186.088V186.714C358.459 187.718 358.323 188.619 358.051 189.417C357.779 190.215 357.395 190.896 356.899 191.458C356.403 192.014 355.811 192.441 355.122 192.737C354.438 193.033 353.679 193.181 352.845 193.181C352.016 193.181 351.257 193.033 350.568 192.737C349.885 192.441 349.292 192.014 348.79 191.458C348.288 190.896 347.898 190.215 347.62 189.417C347.348 188.619 347.212 187.718 347.212 186.714V186.088C347.212 185.078 347.348 184.177 347.62 183.385C347.892 182.587 348.276 181.907 348.772 181.344C349.274 180.782 349.867 180.353 350.55 180.056C351.239 179.76 351.998 179.612 352.827 179.612C353.661 179.612 354.42 179.76 355.103 180.056C355.793 180.353 356.385 180.782 356.881 181.344C357.383 181.907 357.77 182.587 358.042 183.385C358.32 184.177 358.459 185.078 358.459 186.088ZM355.711 186.714V186.07C355.711 185.369 355.648 184.752 355.521 184.22C355.394 183.688 355.206 183.24 354.958 182.877C354.71 182.514 354.408 182.242 354.051 182.061C353.694 181.873 353.286 181.78 352.827 181.78C352.367 181.78 351.959 181.873 351.602 182.061C351.251 182.242 350.952 182.514 350.704 182.877C350.462 183.24 350.278 183.688 350.151 184.22C350.024 184.752 349.96 185.369 349.96 186.07V186.714C349.96 187.41 350.024 188.026 350.151 188.564C350.278 189.097 350.465 189.547 350.713 189.916C350.961 190.279 351.263 190.554 351.62 190.741C351.977 190.929 352.385 191.023 352.845 191.023C353.304 191.023 353.713 190.929 354.069 190.741C354.426 190.554 354.725 190.279 354.967 189.916C355.209 189.547 355.394 189.097 355.521 188.564C355.648 188.026 355.711 187.41 355.711 186.714ZM364.981 190.243L368.092 179.793H371.122L366.523 193H364.528L364.981 190.243ZM362.115 179.793L365.217 190.243L365.689 193H363.675L359.103 179.793H362.115ZM377.036 182.052L373.444 193H370.551L375.458 179.793H377.299L377.036 182.052ZM380.02 193L376.419 182.052L376.129 179.793H377.988L382.923 193H380.02ZM379.857 188.084V190.215H372.882V188.084H379.857ZM391.64 188.619H394.352C394.297 189.508 394.052 190.297 393.617 190.986C393.188 191.676 392.586 192.214 391.812 192.601C391.044 192.988 390.119 193.181 389.036 193.181C388.19 193.181 387.431 193.036 386.76 192.746C386.088 192.45 385.514 192.026 385.036 191.476C384.565 190.926 384.205 190.261 383.957 189.481C383.709 188.701 383.585 187.827 383.585 186.859V185.943C383.585 184.976 383.712 184.102 383.966 183.322C384.226 182.536 384.595 181.867 385.072 181.317C385.556 180.767 386.134 180.344 386.805 180.047C387.476 179.751 388.226 179.603 389.054 179.603C390.155 179.603 391.083 179.802 391.839 180.201C392.601 180.601 393.191 181.151 393.608 181.852C394.031 182.554 394.285 183.352 394.37 184.247H391.649C391.618 183.715 391.513 183.264 391.331 182.895C391.15 182.52 390.875 182.239 390.506 182.052C390.143 181.858 389.659 181.762 389.054 181.762C388.601 181.762 388.205 181.846 387.866 182.016C387.528 182.185 387.243 182.442 387.014 182.787C386.784 183.131 386.611 183.567 386.497 184.093C386.388 184.613 386.333 185.224 386.333 185.925V186.859C386.333 187.543 386.385 188.144 386.488 188.664C386.59 189.178 386.748 189.614 386.959 189.97C387.177 190.321 387.455 190.587 387.794 190.769C388.138 190.944 388.553 191.032 389.036 191.032C389.605 191.032 390.073 190.941 390.442 190.76C390.811 190.578 391.092 190.309 391.286 189.952C391.485 189.596 391.603 189.151 391.64 188.619ZM401.508 182.052L397.916 193H395.023L399.93 179.793H401.771L401.508 182.052ZM404.493 193L400.892 182.052L400.601 179.793H402.461L407.395 193H404.493ZM404.329 188.084V190.215H397.354V188.084H404.329ZM419.305 186.088V186.714C419.305 187.718 419.169 188.619 418.897 189.417C418.624 190.215 418.24 190.896 417.745 191.458C417.249 192.014 416.656 192.441 415.967 192.737C415.283 193.033 414.525 193.181 413.69 193.181C412.862 193.181 412.103 193.033 411.413 192.737C410.73 192.441 410.137 192.014 409.636 191.458C409.134 190.896 408.744 190.215 408.465 189.417C408.193 188.619 408.057 187.718 408.057 186.714V186.088C408.057 185.078 408.193 184.177 408.465 183.385C408.738 182.587 409.122 181.907 409.617 181.344C410.119 180.782 410.712 180.353 411.395 180.056C412.085 179.76 412.844 179.612 413.672 179.612C414.506 179.612 415.265 179.76 415.949 180.056C416.638 180.353 417.231 180.782 417.726 181.344C418.228 181.907 418.615 182.587 418.888 183.385C419.166 184.177 419.305 185.078 419.305 186.088ZM416.556 186.714V186.07C416.556 185.369 416.493 184.752 416.366 184.22C416.239 183.688 416.051 183.24 415.804 182.877C415.556 182.514 415.253 182.242 414.896 182.061C414.54 181.873 414.132 181.78 413.672 181.78C413.212 181.78 412.804 181.873 412.447 182.061C412.097 182.242 411.797 182.514 411.549 182.877C411.308 183.24 411.123 183.688 410.996 184.22C410.869 184.752 410.806 185.369 410.806 186.07V186.714C410.806 187.41 410.869 188.026 410.996 188.564C411.123 189.097 411.311 189.547 411.559 189.916C411.806 190.279 412.109 190.554 412.466 190.741C412.822 190.929 413.231 191.023 413.69 191.023C414.15 191.023 414.558 190.929 414.915 190.741C415.271 190.554 415.571 190.279 415.813 189.916C416.054 189.547 416.239 189.097 416.366 188.564C416.493 188.026 416.556 187.41 416.556 186.714Z" fill="white"/>
<rect x="20" y="272" width="4" height="56" fill="#20BFA4"/>
<path fill-rule="evenodd" clip-rule="evenodd" d="M127.944 260V273.5C127.944 275.5 127.105 280.9 123.751 286.5C120.551 291.842 119.923 296.395 120.007 298.25C119.923 300.105 120.551 304.658 123.751 310C127.105 315.6 127.944 321 127.944 323V336.5H134V298.5V298V260H127.944Z" fill="#232228"/>
<circle cx="125.5" cy="298.5" r="1.5" fill="#26E2B3"/>
<path d="M165.835 73.6189H168.547C168.492 74.5078 168.247 75.297 167.812 75.9863C167.383 76.6757 166.781 77.2139 166.007 77.6009C165.239 77.9879 164.314 78.1814 163.231 78.1814C162.385 78.1814 161.626 78.0363 160.955 77.746C160.284 77.4497 159.709 77.0264 159.231 76.4761C158.76 75.9259 158.4 75.2607 158.152 74.4806C157.904 73.7006 157.78 72.8268 157.78 71.8592V70.9431C157.78 69.9756 157.907 69.1018 158.161 68.3217C158.421 67.5356 158.79 66.8674 159.268 66.3171C159.751 65.7668 160.329 65.3435 161 65.0472C161.671 64.7509 162.421 64.6028 163.25 64.6028C164.35 64.6028 165.278 64.8023 166.034 65.2014C166.796 65.6005 167.386 66.1508 167.803 66.8523C168.226 67.5537 168.48 68.352 168.565 69.2469H165.844C165.814 68.7148 165.708 68.2643 165.526 67.8954C165.345 67.5205 165.07 67.2393 164.701 67.0518C164.338 66.8583 163.854 66.7616 163.25 66.7616C162.796 66.7616 162.4 66.8462 162.061 67.0156C161.723 67.1849 161.439 67.4419 161.209 67.7866C160.979 68.1312 160.807 68.5666 160.692 69.0927C160.583 69.6128 160.528 70.2235 160.528 70.925V71.8592C160.528 72.5425 160.58 73.1442 160.683 73.6643C160.785 74.1783 160.943 74.6137 161.154 74.9704C161.372 75.3212 161.65 75.5872 161.989 75.7686C162.333 75.944 162.748 76.0317 163.231 76.0317C163.8 76.0317 164.269 75.941 164.637 75.7596C165.006 75.5782 165.287 75.3091 165.481 74.9523C165.681 74.5955 165.798 74.1511 165.835 73.6189ZM178.824 75.8775V78H172.175V75.8775H178.824ZM173.055 64.7933V78H170.334V64.7933H173.055ZM185.935 67.0518L182.343 78H179.45L184.357 64.7933H186.198L185.935 67.0518ZM188.919 78L185.318 67.0518L185.028 64.7933H186.887L191.822 78H188.919ZM188.756 73.0838V75.2153H181.781V73.0838H188.756ZM199.922 74.5441C199.922 74.3083 199.886 74.0966 199.813 73.9092C199.747 73.7157 199.62 73.5403 199.432 73.3831C199.245 73.2198 198.982 73.0596 198.643 72.9023C198.304 72.7451 197.866 72.5819 197.328 72.4125C196.729 72.219 196.161 72.0013 195.622 71.7595C195.09 71.5176 194.619 71.2364 194.207 70.9159C193.802 70.5894 193.482 70.2114 193.246 69.7821C193.016 69.3527 192.901 68.8539 192.901 68.2854C192.901 67.7352 193.022 67.2363 193.264 66.7888C193.506 66.3353 193.845 65.9483 194.28 65.6278C194.715 65.3012 195.229 65.0503 195.822 64.8749C196.421 64.6995 197.077 64.6119 197.79 64.6119C198.764 64.6119 199.613 64.7872 200.339 65.1379C201.065 65.4887 201.627 65.9694 202.026 66.5802C202.431 67.1909 202.634 67.8894 202.634 68.6755H199.931C199.931 68.2885 199.849 67.9498 199.686 67.6596C199.529 67.3633 199.287 67.1304 198.96 66.9611C198.64 66.7918 198.235 66.7072 197.745 66.7072C197.273 66.7072 196.88 66.7797 196.566 66.9248C196.251 67.0639 196.015 67.2544 195.858 67.4963C195.701 67.7321 195.622 67.9982 195.622 68.2945C195.622 68.5182 195.677 68.7208 195.786 68.9022C195.901 69.0836 196.07 69.253 196.294 69.4102C196.517 69.5674 196.793 69.7156 197.119 69.8546C197.446 69.9937 197.824 70.1298 198.253 70.2628C198.972 70.4805 199.604 70.7254 200.149 70.9975C200.699 71.2696 201.158 71.575 201.527 71.9137C201.896 72.2523 202.174 72.6363 202.362 73.0656C202.549 73.495 202.643 73.9817 202.643 74.526C202.643 75.1004 202.531 75.6144 202.307 76.068C202.084 76.5215 201.76 76.9055 201.337 77.2199C200.914 77.5344 200.409 77.7732 199.822 77.9365C199.236 78.0998 198.579 78.1814 197.854 78.1814C197.201 78.1814 196.557 78.0968 195.922 77.9274C195.287 77.7521 194.709 77.489 194.189 77.1383C193.675 76.7876 193.264 76.3401 192.956 75.7959C192.647 75.2516 192.493 74.6076 192.493 73.8638H195.223C195.223 74.275 195.287 74.6227 195.414 74.9069C195.541 75.1912 195.719 75.4209 195.949 75.5963C196.185 75.7717 196.463 75.8987 196.783 75.9773C197.11 76.0559 197.467 76.0952 197.854 76.0952C198.325 76.0952 198.712 76.0287 199.015 75.8956C199.323 75.7626 199.55 75.5782 199.695 75.3423C199.846 75.1065 199.922 74.8404 199.922 74.5441ZM211.369 74.5441C211.369 74.3083 211.333 74.0966 211.26 73.9092C211.194 73.7157 211.067 73.5403 210.879 73.3831C210.692 73.2198 210.429 73.0596 210.09 72.9023C209.751 72.7451 209.313 72.5819 208.775 72.4125C208.176 72.219 207.608 72.0013 207.069 71.7595C206.537 71.5176 206.066 71.2364 205.654 70.9159C205.249 70.5894 204.929 70.2114 204.693 69.7821C204.463 69.3527 204.348 68.8539 204.348 68.2854C204.348 67.7352 204.469 67.2363 204.711 66.7888C204.953 66.3353 205.292 65.9483 205.727 65.6278C206.162 65.3012 206.676 65.0503 207.269 64.8749C207.868 64.6995 208.524 64.6119 209.237 64.6119C210.211 64.6119 211.061 64.7872 211.786 65.1379C212.512 65.4887 213.074 65.9694 213.473 66.5802C213.878 67.1909 214.081 67.8894 214.081 68.6755H211.378C211.378 68.2885 211.296 67.9498 211.133 67.6596C210.976 67.3633 210.734 67.1304 210.407 66.9611C210.087 66.7918 209.682 66.7072 209.192 66.7072C208.72 66.7072 208.327 66.7797 208.013 66.9248C207.698 67.0639 207.463 67.2544 207.305 67.4963C207.148 67.7321 207.069 67.9982 207.069 68.2945C207.069 68.5182 207.124 68.7208 207.233 68.9022C207.348 69.0836 207.517 69.253 207.741 69.4102C207.964 69.5674 208.24 69.7156 208.566 69.8546C208.893 69.9937 209.271 70.1298 209.7 70.2628C210.42 70.4805 211.051 70.7254 211.596 70.9975C212.146 71.2696 212.606 71.575 212.974 71.9137C213.343 72.2523 213.621 72.6363 213.809 73.0656C213.996 73.495 214.09 73.9817 214.09 74.526C214.09 75.1004 213.978 75.6144 213.754 76.068C213.531 76.5215 213.207 76.9055 212.784 77.2199C212.361 77.5344 211.856 77.7732 211.269 77.9365C210.683 78.0998 210.026 78.1814 209.301 78.1814C208.648 78.1814 208.004 78.0968 207.369 77.9274C206.734 77.7521 206.156 77.489 205.636 77.1383C205.122 76.7876 204.711 76.3401 204.403 75.7959C204.094 75.2516 203.94 74.6076 203.94 73.8638H206.67C206.67 74.275 206.734 74.6227 206.861 74.9069C206.988 75.1912 207.166 75.4209 207.396 75.5963C207.632 75.7717 207.91 75.8987 208.231 75.9773C208.557 76.0559 208.914 76.0952 209.301 76.0952C209.773 76.0952 210.16 76.0287 210.462 75.8956C210.77 75.7626 210.997 75.5782 211.142 75.3423C211.293 75.1065 211.369 74.8404 211.369 74.5441ZM225.737 72.2039H222.344L222.326 70.3354H225.174C225.676 70.3354 226.087 70.2719 226.408 70.1449C226.728 70.0119 226.967 69.8214 227.124 69.5735C227.288 69.3195 227.369 69.0111 227.369 68.6483C227.369 68.2371 227.291 67.9045 227.134 67.6505C226.982 67.3965 226.744 67.2121 226.417 67.0972C226.096 66.9823 225.682 66.9248 225.174 66.9248H223.288V78H220.566V64.7933H225.174C225.942 64.7933 226.629 64.8658 227.233 65.011C227.844 65.1561 228.361 65.3768 228.784 65.6731C229.208 65.9694 229.531 66.3443 229.755 66.7979C229.979 67.2453 230.091 67.7775 230.091 68.3943C230.091 68.9385 229.967 69.4404 229.719 69.9C229.477 70.3596 229.093 70.7345 228.567 71.0247C228.047 71.315 227.366 71.4752 226.526 71.5055L225.737 72.2039ZM225.619 78H221.601L222.662 75.8775H225.619C226.096 75.8775 226.487 75.8019 226.789 75.6507C227.091 75.4935 227.315 75.2819 227.46 75.0158C227.605 74.7497 227.678 74.4443 227.678 74.0997C227.678 73.7126 227.611 73.377 227.478 73.0928C227.351 72.8086 227.146 72.5909 226.861 72.4397C226.577 72.2825 226.202 72.2039 225.737 72.2039H223.115L223.133 70.3354H226.399L227.025 71.0701C227.829 71.058 228.476 71.2001 228.966 71.4964C229.462 71.7867 229.821 72.1646 230.045 72.6302C230.275 73.0959 230.39 73.5947 230.39 74.1269C230.39 74.9735 230.205 75.687 229.837 76.2675C229.468 76.842 228.926 77.2744 228.213 77.5646C227.505 77.8549 226.641 78 225.619 78ZM237.801 67.0518L234.209 78H231.315L236.222 64.7933H238.064L237.801 67.0518ZM240.785 78L237.184 67.0518L236.893 64.7933H238.753L243.687 78H240.785ZM240.621 73.0838V75.2153H233.646V73.0838H240.621ZM255.66 64.7933V78H252.939L247.633 69.1471V78H244.912V64.7933H247.633L252.948 73.6552V64.7933H255.66ZM260.749 64.7933V78H258.028V64.7933H260.749ZM268.659 64.7933L263.425 71.315L260.404 74.5623L259.915 71.9862L261.955 69.1925L265.321 64.7933H268.659ZM265.565 78L261.674 71.8955L263.688 70.2084L268.786 78H265.565ZM279.707 65.9634L275.334 78H273.548L278.582 64.7933H279.734L279.707 65.9634ZM283.371 78L278.99 65.9634L278.963 64.7933H280.115L285.167 78H283.371ZM283.144 73.111V74.5441H275.725V73.111H283.144ZM288.505 64.0676V78H286.818V64.0676H288.505ZM295.272 78.1814C294.588 78.1814 293.968 78.0665 293.412 77.8367C292.862 77.6009 292.387 77.2713 291.988 76.848C291.595 76.4247 291.293 75.9228 291.081 75.3423C290.869 74.7618 290.764 74.1269 290.764 73.4375V73.0565C290.764 72.2583 290.881 71.5478 291.117 70.925C291.353 70.2961 291.674 69.7639 292.079 69.3285C292.484 68.8932 292.943 68.5636 293.457 68.3399C293.971 68.1161 294.504 68.0042 295.054 68.0042C295.755 68.0042 296.36 68.1252 296.868 68.3671C297.382 68.6089 297.802 68.9476 298.129 69.383C298.455 69.8123 298.697 70.3203 298.854 70.9068C299.012 71.4873 299.09 72.1223 299.09 72.8116V73.5645H291.761V72.1948H297.412V72.0679C297.388 71.6325 297.297 71.2092 297.14 70.798C296.989 70.3868 296.747 70.0481 296.414 69.7821C296.082 69.516 295.628 69.383 295.054 69.383C294.673 69.383 294.322 69.4646 294.002 69.6279C293.681 69.7851 293.406 70.0209 293.176 70.3354C292.946 70.6498 292.768 71.0338 292.641 71.4873C292.514 71.9409 292.451 72.4639 292.451 73.0565V73.4375C292.451 73.9031 292.514 74.3415 292.641 74.7527C292.774 75.1579 292.965 75.5147 293.213 75.8231C293.467 76.1315 293.772 76.3733 294.129 76.5487C294.492 76.7241 294.903 76.8118 295.362 76.8118C295.955 76.8118 296.457 76.6908 296.868 76.4489C297.279 76.2071 297.639 75.8835 297.947 75.4784L298.963 76.2857C298.752 76.6062 298.483 76.9115 298.156 77.2018C297.829 77.492 297.427 77.7279 296.95 77.9093C296.478 78.0907 295.919 78.1814 295.272 78.1814ZM302.728 69.7277V78H301.05V68.1857H302.682L302.728 69.7277ZM305.793 68.1312L305.784 69.6914C305.645 69.6611 305.512 69.643 305.385 69.6369C305.264 69.6249 305.125 69.6188 304.968 69.6188C304.581 69.6188 304.239 69.6793 303.943 69.8002C303.647 69.9212 303.396 70.0905 303.19 70.3082C302.985 70.5259 302.821 70.7859 302.7 71.0882C302.585 71.3845 302.51 71.7111 302.474 72.0679L302.002 72.34C302.002 71.7474 302.059 71.191 302.174 70.671C302.295 70.1509 302.48 69.6914 302.728 69.2923C302.975 68.8871 303.29 68.5727 303.671 68.3489C304.058 68.1191 304.517 68.0042 305.05 68.0042C305.171 68.0042 305.31 68.0194 305.467 68.0496C305.624 68.0738 305.733 68.101 305.793 68.1312ZM311.907 68.1857V69.4737H306.601V68.1857H311.907ZM308.397 65.8001H310.075V75.5691C310.075 75.9017 310.126 76.1526 310.229 76.3219C310.332 76.4913 310.465 76.6031 310.628 76.6576C310.791 76.712 310.967 76.7392 311.154 76.7392C311.293 76.7392 311.438 76.7271 311.59 76.7029C311.747 76.6727 311.865 76.6485 311.943 76.6303L311.952 78C311.819 78.0423 311.644 78.0816 311.426 78.1179C311.215 78.1602 310.958 78.1814 310.655 78.1814C310.244 78.1814 309.866 78.0998 309.521 77.9365C309.177 77.7732 308.902 77.5011 308.696 77.1202C308.496 76.7331 308.397 76.2131 308.397 75.56V65.8001ZM319.662 76.3219V71.2696C319.662 70.8826 319.584 70.547 319.426 70.2628C319.275 69.9726 319.046 69.7488 318.737 69.5916C318.429 69.4344 318.048 69.3558 317.594 69.3558C317.171 69.3558 316.799 69.4283 316.479 69.5735C316.164 69.7186 315.916 69.9091 315.735 70.1449C315.559 70.3807 315.472 70.6347 315.472 70.9068H313.794C313.794 70.5561 313.884 70.2084 314.066 69.8637C314.247 69.519 314.507 69.2076 314.846 68.9294C315.191 68.6452 315.602 68.4215 316.079 68.2582C316.563 68.0889 317.101 68.0042 317.694 68.0042C318.408 68.0042 319.036 68.1252 319.581 68.3671C320.131 68.6089 320.56 68.9748 320.869 69.4646C321.183 69.9484 321.34 70.5561 321.34 71.2878V75.8593C321.34 76.1859 321.368 76.5336 321.422 76.9025C321.482 77.2713 321.57 77.5888 321.685 77.8549V78H319.934C319.85 77.8065 319.783 77.5495 319.735 77.229C319.686 76.9025 319.662 76.6001 319.662 76.3219ZM319.953 72.0497L319.971 73.2289H318.275C317.797 73.2289 317.37 73.2682 316.996 73.3468C316.621 73.4194 316.306 73.5312 316.052 73.6824C315.798 73.8336 315.605 74.0241 315.472 74.2539C315.339 74.4776 315.272 74.7406 315.272 75.043C315.272 75.3514 315.342 75.6326 315.481 75.8866C315.62 76.1405 315.828 76.3431 316.107 76.4943C316.391 76.6394 316.739 76.712 317.15 76.712C317.664 76.712 318.117 76.6031 318.51 76.3854C318.903 76.1677 319.215 75.9017 319.445 75.5872C319.68 75.2728 319.807 74.9674 319.826 74.6711L320.542 75.4784C320.5 75.7324 320.385 76.0135 320.197 76.3219C320.01 76.6303 319.759 76.9267 319.445 77.2109C319.136 77.489 318.767 77.7218 318.338 77.9093C317.915 78.0907 317.437 78.1814 316.905 78.1814C316.24 78.1814 315.656 78.0514 315.154 77.7914C314.658 77.5314 314.271 77.1836 313.993 76.7483C313.721 76.3068 313.585 75.814 313.585 75.2698C313.585 74.7437 313.688 74.2811 313.893 73.882C314.099 73.4768 314.395 73.1412 314.782 72.8751C315.169 72.603 315.635 72.3974 316.179 72.2583C316.723 72.1193 317.331 72.0497 318.002 72.0497H319.953ZM329.694 75.3967C329.694 75.1549 329.64 74.9311 329.531 74.7255C329.428 74.5139 329.214 74.3234 328.887 74.1541C328.567 73.9787 328.083 73.8275 327.436 73.7006C326.892 73.5857 326.399 73.4496 325.957 73.2924C325.522 73.1352 325.15 72.9447 324.842 72.7209C324.539 72.4972 324.306 72.2341 324.143 71.9318C323.98 71.6294 323.898 71.2757 323.898 70.8705C323.898 70.4835 323.983 70.1177 324.152 69.773C324.328 69.4283 324.573 69.1229 324.887 68.8569C325.207 68.5908 325.591 68.3822 326.039 68.231C326.486 68.0798 326.985 68.0042 327.536 68.0042C328.322 68.0042 328.993 68.1433 329.549 68.4215C330.106 68.6997 330.532 69.0715 330.828 69.5372C331.124 69.9967 331.273 70.5077 331.273 71.0701H329.595C329.595 70.798 329.513 70.5349 329.35 70.281C329.192 70.0209 328.96 69.8063 328.651 69.6369C328.349 69.4676 327.977 69.383 327.536 69.383C327.07 69.383 326.692 69.4555 326.402 69.6007C326.118 69.7397 325.909 69.9181 325.776 70.1358C325.649 70.3535 325.585 70.5833 325.585 70.8252C325.585 71.0066 325.616 71.1699 325.676 71.315C325.743 71.4541 325.857 71.5841 326.021 71.705C326.184 71.8199 326.414 71.9288 326.71 72.0316C327.006 72.1344 327.384 72.2372 327.844 72.34C328.648 72.5214 329.31 72.7391 329.83 72.9931C330.35 73.247 330.737 73.5585 330.991 73.9273C331.245 74.2962 331.372 74.7437 331.372 75.2698C331.372 75.6991 331.282 76.0922 331.1 76.4489C330.925 76.8057 330.668 77.1141 330.329 77.3741C329.997 77.6281 329.598 77.8277 329.132 77.9728C328.672 78.1119 328.155 78.1814 327.581 78.1814C326.716 78.1814 325.984 78.0272 325.386 77.7188C324.787 77.4104 324.334 77.0113 324.025 76.5215C323.717 76.0317 323.563 75.5147 323.563 74.9704H325.25C325.274 75.43 325.407 75.7959 325.649 76.068C325.891 76.334 326.187 76.5245 326.538 76.6394C326.889 76.7483 327.236 76.8027 327.581 76.8027C328.04 76.8027 328.424 76.7422 328.733 76.6213C329.047 76.5003 329.286 76.334 329.449 76.1224C329.613 75.9107 329.694 75.6689 329.694 75.3967ZM339.862 70.0723V81.7734H338.175V68.1857H339.717L339.862 70.0723ZM346.475 73.0112V73.2017C346.475 73.9152 346.39 74.5774 346.221 75.1881C346.052 75.7928 345.804 76.3189 345.477 76.7664C345.157 77.2139 344.761 77.5616 344.289 77.8095C343.817 78.0574 343.276 78.1814 342.665 78.1814C342.042 78.1814 341.492 78.0786 341.014 77.873C340.537 77.6674 340.132 77.3681 339.799 76.975C339.466 76.582 339.2 76.1103 339.001 75.56C338.807 75.0097 338.674 74.3899 338.602 73.7006V72.6847C338.674 71.959 338.81 71.309 339.01 70.7345C339.209 70.16 339.472 69.6702 339.799 69.2651C340.132 68.8539 340.534 68.5424 341.005 68.3308C341.477 68.1131 342.021 68.0042 342.638 68.0042C343.255 68.0042 343.802 68.1252 344.28 68.3671C344.758 68.6029 345.16 68.9415 345.486 69.383C345.813 69.8244 346.058 70.3535 346.221 70.9703C346.39 71.5811 346.475 72.2614 346.475 73.0112ZM344.788 73.2017V73.0112C344.788 72.5214 344.736 72.0618 344.634 71.6325C344.531 71.1971 344.371 70.8161 344.153 70.4896C343.941 70.157 343.669 69.897 343.336 69.7095C343.004 69.516 342.608 69.4193 342.148 69.4193C341.725 69.4193 341.356 69.4918 341.042 69.6369C340.733 69.7821 340.47 69.9786 340.252 70.2265C340.035 70.4684 339.856 70.7466 339.717 71.061C339.584 71.3694 339.485 71.6899 339.418 72.0225V74.3718C339.539 74.7951 339.708 75.1942 339.926 75.5691C340.144 75.938 340.434 76.2373 340.797 76.4671C341.16 76.6908 341.616 76.8027 342.166 76.8027C342.62 76.8027 343.01 76.709 343.336 76.5215C343.669 76.328 343.941 76.0649 344.153 75.7324C344.371 75.3998 344.531 75.0188 344.634 74.5895C344.736 74.1541 344.788 73.6915 344.788 73.2017ZM348.171 73.2017V72.9931C348.171 72.2855 348.274 71.6294 348.479 71.0247C348.685 70.414 348.981 69.8849 349.368 69.4374C349.755 68.9839 350.224 68.6331 350.774 68.3852C351.325 68.1312 351.941 68.0042 352.625 68.0042C353.314 68.0042 353.934 68.1312 354.484 68.3852C355.041 68.6331 355.512 68.9839 355.899 69.4374C356.292 69.8849 356.592 70.414 356.797 71.0247C357.003 71.6294 357.106 72.2855 357.106 72.9931V73.2017C357.106 73.9092 357.003 74.5653 356.797 75.17C356.592 75.7747 356.292 76.3038 355.899 76.7573C355.512 77.2048 355.044 77.5555 354.493 77.8095C353.949 78.0574 353.332 78.1814 352.643 78.1814C351.953 78.1814 351.334 78.0574 350.783 77.8095C350.233 77.5555 349.761 77.2048 349.368 76.7573C348.981 76.3038 348.685 75.7747 348.479 75.17C348.274 74.5653 348.171 73.9092 348.171 73.2017ZM349.849 72.9931V73.2017C349.849 73.6915 349.907 74.1541 350.021 74.5895C350.136 75.0188 350.309 75.3998 350.538 75.7324C350.774 76.0649 351.068 76.328 351.418 76.5215C351.769 76.709 352.177 76.8027 352.643 76.8027C353.102 76.8027 353.505 76.709 353.849 76.5215C354.2 76.328 354.49 76.0649 354.72 75.7324C354.95 75.3998 355.122 75.0188 355.237 74.5895C355.358 74.1541 355.418 73.6915 355.418 73.2017V72.9931C355.418 72.5093 355.358 72.0527 355.237 71.6234C355.122 71.188 354.947 70.804 354.711 70.4714C354.481 70.1328 354.191 69.8667 353.84 69.6732C353.495 69.4797 353.09 69.383 352.625 69.383C352.165 69.383 351.76 69.4797 351.409 69.6732C351.065 69.8667 350.774 70.1328 350.538 70.4714C350.309 70.804 350.136 71.188 350.021 71.6234C349.907 72.0527 349.849 72.5093 349.849 72.9931ZM360.888 69.7277V78H359.21V68.1857H360.843L360.888 69.7277ZM363.954 68.1312L363.945 69.6914C363.806 69.6611 363.673 69.643 363.546 69.6369C363.425 69.6249 363.286 69.6188 363.128 69.6188C362.741 69.6188 362.4 69.6793 362.103 69.8002C361.807 69.9212 361.556 70.0905 361.351 70.3082C361.145 70.5259 360.982 70.7859 360.861 71.0882C360.746 71.3845 360.67 71.7111 360.634 72.0679L360.162 72.34C360.162 71.7474 360.22 71.191 360.335 70.671C360.456 70.1509 360.64 69.6914 360.888 69.2923C361.136 68.8871 361.45 68.5727 361.831 68.3489C362.218 68.1191 362.678 68.0042 363.21 68.0042C363.331 68.0042 363.47 68.0194 363.627 68.0496C363.785 68.0738 363.893 68.101 363.954 68.1312ZM371.791 69.7277V78H370.113V68.1857H371.745L371.791 69.7277ZM374.857 68.1312L374.848 69.6914C374.708 69.6611 374.575 69.643 374.448 69.6369C374.328 69.6249 374.188 69.6188 374.031 69.6188C373.644 69.6188 373.303 69.6793 373.006 69.8002C372.71 69.9212 372.459 70.0905 372.253 70.3082C372.048 70.5259 371.885 70.7859 371.764 71.0882C371.649 71.3845 371.573 71.7111 371.537 72.0679L371.065 72.34C371.065 71.7474 371.123 71.191 371.237 70.671C371.358 70.1509 371.543 69.6914 371.791 69.2923C372.039 68.8871 372.353 68.5727 372.734 68.3489C373.121 68.1191 373.581 68.0042 374.113 68.0042C374.234 68.0042 374.373 68.0194 374.53 68.0496C374.687 68.0738 374.796 68.101 374.857 68.1312ZM380.299 78.1814C379.616 78.1814 378.996 78.0665 378.44 77.8367C377.889 77.6009 377.415 77.2713 377.015 76.848C376.622 76.4247 376.32 75.9228 376.108 75.3423C375.897 74.7618 375.791 74.1269 375.791 73.4375V73.0565C375.791 72.2583 375.909 71.5478 376.145 70.925C376.381 70.2961 376.701 69.7639 377.106 69.3285C377.511 68.8932 377.971 68.5636 378.485 68.3399C378.999 68.1161 379.531 68.0042 380.081 68.0042C380.783 68.0042 381.387 68.1252 381.895 68.3671C382.409 68.6089 382.83 68.9476 383.156 69.383C383.483 69.8123 383.725 70.3203 383.882 70.9068C384.039 71.4873 384.118 72.1223 384.118 72.8116V73.5645H376.789V72.1948H382.44V72.0679C382.415 71.6325 382.325 71.2092 382.168 70.798C382.016 70.3868 381.774 70.0481 381.442 69.7821C381.109 69.516 380.656 69.383 380.081 69.383C379.7 69.383 379.35 69.4646 379.029 69.6279C378.709 69.7851 378.433 70.0209 378.204 70.3354C377.974 70.6498 377.796 71.0338 377.669 71.4873C377.542 71.9409 377.478 72.4639 377.478 73.0565V73.4375C377.478 73.9031 377.542 74.3415 377.669 74.7527C377.802 75.1579 377.992 75.5147 378.24 75.8231C378.494 76.1315 378.799 76.3733 379.156 76.5487C379.519 76.7241 379.93 76.8118 380.39 76.8118C380.982 76.8118 381.484 76.6908 381.895 76.4489C382.307 76.2071 382.666 75.8835 382.975 75.4784L383.991 76.2857C383.779 76.6062 383.51 76.9115 383.183 77.2018C382.857 77.492 382.455 77.7279 381.977 77.9093C381.505 78.0907 380.946 78.1814 380.299 78.1814ZM392.435 68.1857H393.959V77.7914C393.959 78.6561 393.784 79.3938 393.433 80.0046C393.082 80.6153 392.593 81.0779 391.964 81.3924C391.341 81.7129 390.621 81.8731 389.805 81.8731C389.466 81.8731 389.067 81.8187 388.608 81.7099C388.154 81.6071 387.707 81.4287 387.265 81.1747C386.83 80.9268 386.464 80.5912 386.168 80.1679L387.047 79.1701C387.459 79.666 387.888 80.0106 388.335 80.2041C388.789 80.3977 389.236 80.4944 389.678 80.4944C390.21 80.4944 390.67 80.3946 391.057 80.1951C391.444 79.9955 391.743 79.6992 391.955 79.3062C392.172 78.9191 392.281 78.4414 392.281 77.873V70.3444L392.435 68.1857ZM385.678 73.2017V73.0112C385.678 72.2614 385.765 71.5811 385.941 70.9703C386.122 70.3535 386.379 69.8244 386.712 69.383C387.05 68.9415 387.459 68.6029 387.936 68.3671C388.414 68.1252 388.952 68.0042 389.551 68.0042C390.168 68.0042 390.706 68.1131 391.166 68.3308C391.631 68.5424 392.024 68.8539 392.345 69.2651C392.671 69.6702 392.928 70.16 393.116 70.7345C393.303 71.309 393.433 71.959 393.506 72.6847V73.5191C393.439 74.2387 393.309 74.8858 393.116 75.4602C392.928 76.0347 392.671 76.5245 392.345 76.9297C392.024 77.3348 391.631 77.6462 391.166 77.8639C390.7 78.0756 390.156 78.1814 389.533 78.1814C388.946 78.1814 388.414 78.0574 387.936 77.8095C387.465 77.5616 387.06 77.2139 386.721 76.7664C386.382 76.3189 386.122 75.7928 385.941 75.1881C385.765 74.5774 385.678 73.9152 385.678 73.2017ZM387.356 73.0112V73.2017C387.356 73.6915 387.404 74.1511 387.501 74.5804C387.604 75.0097 387.758 75.3877 387.964 75.7142C388.175 76.0408 388.444 76.2978 388.771 76.4852C389.097 76.6666 389.487 76.7573 389.941 76.7573C390.497 76.7573 390.957 76.6394 391.32 76.4036C391.683 76.1677 391.97 75.8563 392.181 75.4693C392.399 75.0823 392.568 74.662 392.689 74.2085V72.0225C392.623 71.6899 392.52 71.3694 392.381 71.061C392.248 70.7466 392.073 70.4684 391.855 70.2265C391.643 69.9786 391.38 69.7821 391.066 69.6369C390.751 69.4918 390.382 69.4193 389.959 69.4193C389.5 69.4193 389.103 69.516 388.771 69.7095C388.444 69.897 388.175 70.157 387.964 70.4896C387.758 70.8161 387.604 71.1971 387.501 71.6325C387.404 72.0618 387.356 72.5214 387.356 73.0112ZM398.186 69.7277V78H396.508V68.1857H398.141L398.186 69.7277ZM401.252 68.1312L401.243 69.6914C401.104 69.6611 400.971 69.643 400.844 69.6369C400.723 69.6249 400.584 69.6188 400.427 69.6188C400.04 69.6188 399.698 69.6793 399.402 69.8002C399.105 69.9212 398.854 70.0905 398.649 70.3082C398.443 70.5259 398.28 70.7859 398.159 71.0882C398.044 71.3845 397.968 71.7111 397.932 72.0679L397.46 72.34C397.46 71.7474 397.518 71.191 397.633 70.671C397.754 70.1509 397.938 69.6914 398.186 69.2923C398.434 68.8871 398.749 68.5727 399.129 68.3489C399.516 68.1191 399.976 68.0042 400.508 68.0042C400.629 68.0042 400.768 68.0194 400.925 68.0496C401.083 68.0738 401.192 68.101 401.252 68.1312ZM408.227 76.3219V71.2696C408.227 70.8826 408.149 70.547 407.991 70.2628C407.84 69.9726 407.61 69.7488 407.302 69.5916C406.994 69.4344 406.613 69.3558 406.159 69.3558C405.736 69.3558 405.364 69.4283 405.043 69.5735C404.729 69.7186 404.481 69.9091 404.3 70.1449C404.124 70.3807 404.037 70.6347 404.037 70.9068H402.359C402.359 70.5561 402.449 70.2084 402.631 69.8637C402.812 69.519 403.072 69.2076 403.411 68.9294C403.755 68.6452 404.167 68.4215 404.644 68.2582C405.128 68.0889 405.666 68.0042 406.259 68.0042C406.972 68.0042 407.601 68.1252 408.146 68.3671C408.696 68.6089 409.125 68.9748 409.434 69.4646C409.748 69.9484 409.905 70.5561 409.905 71.2878V75.8593C409.905 76.1859 409.932 76.5336 409.987 76.9025C410.047 77.2713 410.135 77.5888 410.25 77.8549V78H408.499C408.415 77.8065 408.348 77.5495 408.3 77.229C408.251 76.9025 408.227 76.6001 408.227 76.3219ZM408.517 72.0497L408.536 73.2289H406.839C406.362 73.2289 405.935 73.2682 405.56 73.3468C405.186 73.4194 404.871 73.5312 404.617 73.6824C404.363 73.8336 404.17 74.0241 404.037 74.2539C403.904 74.4776 403.837 74.7406 403.837 75.043C403.837 75.3514 403.907 75.6326 404.046 75.8866C404.185 76.1405 404.393 76.3431 404.672 76.4943C404.956 76.6394 405.303 76.712 405.715 76.712C406.229 76.712 406.682 76.6031 407.075 76.3854C407.468 76.1677 407.78 75.9017 408.01 75.5872C408.245 75.2728 408.372 74.9674 408.391 74.6711L409.107 75.4784C409.065 75.7324 408.95 76.0135 408.762 76.3219C408.575 76.6303 408.324 76.9267 408.01 77.2109C407.701 77.489 407.332 77.7218 406.903 77.9093C406.48 78.0907 406.002 78.1814 405.47 78.1814C404.805 78.1814 404.221 78.0514 403.719 77.7914C403.223 77.5314 402.836 77.1836 402.558 76.7483C402.286 76.3068 402.15 75.814 402.15 75.2698C402.15 74.7437 402.253 74.2811 402.458 73.882C402.664 73.4768 402.96 73.1412 403.347 72.8751C403.734 72.603 404.2 72.3974 404.744 72.2583C405.288 72.1193 405.896 72.0497 406.567 72.0497H408.517Z" fill="white"/>
<defs>
<filter id="filter0_d_618_52" x="180.021" y="131.881" width="1018.97" height="539.574" filterUnits="userSpaceOnUse" color-interpolation-filters="sRGB">
<feFlood flood-opacity="0" result="BackgroundImageFix"/>
<feColorMatrix in="SourceAlpha" type="matrix" values="0 0 0 0 0 0 0 0 0 0 0 0 0 0 0 0 0 0 127 0" result="hardAlpha"/>
<feMorphology radius="0.754414" operator="dilate" in="SourceAlpha" result="effect1_dropShadow_618_52"/>
<feOffset dy="3.01766"/>
<feGaussianBlur stdDeviation="3.01766"/>
<feComposite in2="hardAlpha" operator="out"/>
<feColorMatrix type="matrix" values="0 0 0 0 0 0 0 0 0 0 0 0 0 0 0 0 0 0 0.25 0"/>
<feBlend mode="normal" in2="BackgroundImageFix" result="effect1_dropShadow_618_52"/>
<feBlend mode="normal" in="SourceGraphic" in2="effect1_dropShadow_618_52" result="shape"/>
</filter>
<filter id="filter1_d_618_52" x="110.21" y="37.2277" width="1157.58" height="614.135" filterUnits="userSpaceOnUse" color-interpolation-filters="sRGB">
<feFlood flood-opacity="0" result="BackgroundImageFix"/>
<feColorMatrix in="SourceAlpha" type="matrix" values="0 0 0 0 0 0 0 0 0 0 0 0 0 0 0 0 0 0 127 0" result="hardAlpha"/>
<feMorphology radius="3.75" operator="dilate" in="SourceAlpha" result="effect1_dropShadow_618_52"/>
<feOffset dy="3.01766"/>
<feGaussianBlur stdDeviation="6.02"/>
<feComposite in2="hardAlpha" operator="out"/>
<feColorMatrix type="matrix" values="0 0 0 0 0 0 0 0 0 0 0 0 0 0 0 0 0 0 0.25 0"/>
<feBlend mode="normal" in2="BackgroundImageFix" result="effect1_dropShadow_618_52"/>
<feBlend mode="normal" in="SourceGraphic" in2="effect1_dropShadow_618_52" result="shape"/>
</filter>
</defs>
</svg>
